PathFileType	4	(X/Y/Z)	E:\Qualisys_Data\Carbon_Farble_Plate\Data\Amateur_Runner\S1\T1\S1T1V11_c3d.trc
DataRate	CameraRate	NumFrames	NumMarkers	Units	OrigDataRate	OrigDataStartFrame	OrigNumFrames
200.000000	200.000000	5	39	mm	200.000000	285	326
Frame#	Time	LSHO			RSHO			LICST			RICST			LASIS			LHEEL			RASIS			LTROC			RTROC			SACR			LTH1			LSK4			LTH2			LTH3			RHM5			LSK2			LTH4			RTH1			LTOE			RTH2			RTH3			RTH4			LLEP			RLEP			LSK1			LSK3			RSK1			LHM5			RSK2			LFT1			RSK3			RSK4			LLME			RLME			RTOE			RHEEL			RFT1			RFT2			LFT2			
		X1	Y1	Z1	X2	Y2	Z2	X3	Y3	Z3	X4	Y4	Z4	X5	Y5	Z5	X6	Y6	Z6	X7	Y7	Z7	X8	Y8	Z8	X9	Y9	Z9	X10	Y10	Z10	X11	Y11	Z11	X12	Y12	Z12	X13	Y13	Z13	X14	Y14	Z14	X15	Y15	Z15	X16	Y16	Z16	X17	Y17	Z17	X18	Y18	Z18	X19	Y19	Z19	X20	Y20	Z20	X21	Y21	Z21	X22	Y22	Z22	X23	Y23	Z23	X24	Y24	Z24	X25	Y25	Z25	X26	Y26	Z26	X27	Y27	Z27	X28	Y28	Z28	X29	Y29	Z29	X30	Y30	Z30	X31	Y31	Z31	X32	Y32	Z32	X33	Y33	Z33	X34	Y34	Z34	X35	Y35	Z35	X36	Y36	Z36	X37	Y37	Z37	X38	Y38	Z38	X39	Y39	Z39	

286	1.425	1922.28125	1508.98095703125	-604.7332153320312	1857.834594726562	1513.129760742188	-283.9338684082031	1852.063842773438	1037.05126953125	-567.958251953125	1856.208984375	1072.87255859375	-271.3576354980469	1896.958740234375	997.2293701171876	-544.7722778320312	1410.949340820312	180.4160003662109	-440.739013671875	1898.547729492188	1024.110229492188	-279.7478942871094	1770.685913085938	926.4458618164062	-574.378173828125	1804.4189453125	934.720458984375	-234.9075927734375	1739.417236328125	1074.445190429688	-412.8891296386719	1862.98681640625	756.4077758789062	-550.65185546875	1513.340576171875	313.7101440429688	-478.5404663085938	1783.013549804688	768.9550170898438	-578.4896850585938	1838.081176757812	656.568603515625	-530.4227905273438	1980.472045898438	129.6219940185547	-255.8815612792969	1571.176879882812	388.0526123046875	-521.575927734375	1756.564453125	674.5448608398438	-551.429931640625	1976.568725585938	870.7566528320312	-270.4604187011719	1618.847778320312	48.18168640136719	-449.7469482421875	1915.830810546875	828.3368530273438	-235.16259765625	2032.483032226562	785.364013671875	-271.7291870117188	1967.063232421875	742.91357421875	-246.5353546142578	1746.113159179688	518.6988525390625	-513.0274658203125	2062.0849609375	603.7892456054688	-285.7206115722656	1637.634521484375	335.1336975097656	-511.9017639160156	1569.363159179688	260.5882568359375	-504.0562133789062	1996.320678710938	425.6452331542969	-267.3013000488281	1552.193115234375	58.85292434692383	-508.979736328125	1921.998779296875	457.6624450683594	-281.9169921875	1410.002807617188	154.6789703369141	-409.9336242675781	1959.551879882812	332.544677734375	-279.5235290527344	1887.771728515625	364.6532592773438	-302.1613464355469	1471.8955078125	182.954345703125	-490.7311401367188	1878.058715820312	225.7039184570312	-280.0940246582031	2054.5146484375	133.4740295410156	-328.5529479980469	1808.390625	201.2516632080078	-325.7342224121094	1814.035888671875	169.7138061523438	-356.7017517089844	1806.02685546875	175.7032318115234	-299.2914428710938	1399.140380859375	152.6721038818359	-462.8063659667969
287	1.43	1938.887939453125	1513.77978515625	-603.4468383789062	1872.16748046875	1517.041015625	-283.6105041503906	1870.247924804688	1040.90966796875	-567.5164794921875	1873.517333984375	1077.192626953125	-271.5827331542969	1914.391845703125	1000.106262207031	-543.9844360351562	1419.792846679688	189.2112121582031	-441.6854858398438	1914.221069335938	1028.463256835938	-279.8908386230469	1787.956665039062	930.4666137695312	-574.5401000976562	1821.029296875	938.6118774414062	-235.0427703857422	1756.950317382812	1078.249145507812	-413.1881713867188	1877.211303710938	759.2352294921875	-550.71435546875	1522.283203125	319.5817260742188	-479.5300903320312	1797.644409179688	773.1865844726562	-578.9368286132812	1850.796875	660.4713134765625	-530.6375122070312	2015.89013671875	128.2149963378906	-256.9169006347656	1580.287841796875	394.2211303710938	-522.3871459960938	1769.112670898438	679.3082885742188	-551.7437744140625	1993.445922851562	874.7501831054688	-270.5384521484375	1620.687133789062	47.99192810058594	-450.5628662109375	1932.7392578125	832.1021118164062	-235.73486328125	2048.921142578125	788.4823608398438	-272.7413330078125	1983.738891601562	746.5446166992188	-247.9337768554688	1756.0126953125	523.64794921875	-513.4341430664062	2077.93359375	606.6570434570312	-286.4399108886719	1646.390869140625	341.0475463867188	-513.4697875976562	1577.786865234375	266.4090270996094	-505.8578796386719	2018.7314453125	425.3431091308594	-267.2790222167969	1555.091918945312	59.87102508544922	-509.5648498535156	1943.084716796875	453.6488952636719	-281.763916015625	1417.784790039062	164.0224761962891	-411.2962951660156	1986.01611328125	330.6736145019531	-280.2142333984375	1912.743286132812	359.5888366699219	-301.6006164550781	1480.58544921875	189.5027313232422	-492.4990234375	1909.736206054688	219.3133697509766	-281.2869567871094	2089.85302734375	135.3028106689453	-330.0090637207031	1840.560424804688	192.3866424560547	-326.2283020019531	1847.651611328125	160.8649749755859	-357.1930541992188	1839.37060546875	167.2334442138672	-298.6956176757812	1406.594848632812	162.2799377441406	-464.1401062011719
288	1.435	1955.177124023438	1519.268676757812	-602.5658569335938	1887.122436523438	1520.58154296875	-283.3299255371094	1888.31494140625	1044.394409179688	-567.4090576171875	1889.820922851562	1080.753540039062	-271.4013061523438	1932.432006835938	1003.841003417969	-543.5270385742188	1429.58642578125	198.3902282714844	-443.0732727050781	1930.493286132812	1032.324829101562	-279.6897277832031	1805.010009765625	934.37548828125	-574.3717041015625	1837.8017578125	942.3906860351562	-235.0717010498047	1774.27197265625	1081.983520507812	-413.7192687988281	1891.506713867188	762.2847900390625	-552.2352294921875	1531.752807617188	325.5701599121094	-480.5923156738281	1812.219848632812	777.8858642578125	-579.239013671875	1863.32275390625	663.8740844726562	-531.1088256835938	2051.5029296875	127.5338668823242	-258.1279907226562	1589.573974609375	400.4549560546875	-523.3405151367188	1782.072265625	684.16748046875	-552.2706909179688	2009.369384765625	876.712890625	-271.02978515625	1623.015014648438	47.40695190429688	-452.0294799804688	1948.85498046875	835.4498901367188	-236.7945861816406	2065.248779296875	791.6337890625	-273.4256896972656	1999.596069335938	749.6505126953125	-249.0248413085938	1766.653930664062	528.4382934570312	-514.164794921875	2092.69775390625	609.0740356445312	-287.062744140625	1655.638793945312	346.8820190429688	-514.819580078125	1586.79736328125	272.8421936035156	-507.7848815917969	2041.0380859375	424.2233581542969	-268.0489807128906	1558.4365234375	61.94374084472656	-510.618408203125	1963.929077148438	450.0756225585938	-281.873779296875	1426.64794921875	173.6532287597656	-412.7097473144531	2012.574462890625	328.5965270996094	-280.7628479003906	1937.897583007812	354.2274169921875	-302.5545349121094	1489.872680664062	195.4683532714844	-494.4834289550781	1940.357666015625	214.1621551513672	-280.6546325683594	2124.753173828125	137.5168304443359	-331.11865234375	1873.26220703125	183.7354125976562	-327.1502990722656	1881.713989257812	152.3969116210938	-357.6558532714844	1873.336059570312	157.8540496826172	-300.5899047851562	1415.219116210938	172.1845092773438	-465.1803283691406
289	1.44	1971.821655273438	1523.802978515625	-601.0693969726562	1901.857666015625	1524.197265625	-282.9117431640625	1906.304809570312	1047.303955078125	-567.0527954101562	1906.429809570312	1084.48193359375	-270.9989624023438	1949.988647460938	1006.939514160156	-541.7427368164062	1440.113403320312	208.2528228759766	-444.4777526855469	1946.983642578125	1035.750610351562	-279.4561767578125	1821.968872070312	938.1163940429688	-574.359375	1854.33056640625	945.732421875	-234.9619903564453	1792.036499023438	1085.47119140625	-414.1200866699219	1905.655151367188	765.4338989257812	-552.96142578125	1541.60693359375	331.4609680175781	-481.4452209472656	1826.774658203125	782.3534545898438	-580.0084838867188	1876.125122070312	667.7957763671875	-532.1616821289062	2086.595703125	127.1423263549805	-259.401611328125	1599.293701171875	406.1329956054688	-524.2584838867188	1795.474853515625	688.7505493164062	-552.5380249023438	2026.034912109375	879.493408203125	-270.623779296875	1625.20166015625	47.0234375	-451.6445007324219	1964.986083984375	838.1422729492188	-237.5113372802734	2081.317626953125	794.1219482421875	-273.5439758300781	2015.067016601562	752.0020141601562	-251.0674591064453	1777.563720703125	533.5233764648438	-514.673095703125	2107.730224609375	610.993408203125	-287.6183166503906	1665.221435546875	353.0204162597656	-516.7645263671875	1596.869384765625	277.8236083984375	-509.4250183105469	2063.228515625	423.5321655273438	-268.2913513183594	1561.987060546875	63.72298049926758	-511.1916198730469	1984.946655273438	445.6065673828125	-281.0690307617188	1436.25830078125	183.8436584472656	-413.7393798828125	2038.555297851562	326.9087829589844	-280.9847106933594	1962.877685546875	349.4694519042969	-302.1052551269531	1498.431884765625	201.2583618164062	-496.4399108886719	1972.917846679688	207.7342529296875	-282.6156616210938	2159.0869140625	140.6022796630859	-332.6490783691406	1905.914794921875	175.2264404296875	-328.0025329589844	1917.877075195312	146.1013031005859	-358.7951049804688	1907.3828125	149.6047210693359	-300.9915161132812	1424.45654296875	182.3688507080078	-466.5431213378906
290	1.445	1988.479736328125	1528.21533203125	-599.842529296875	1916.893676757812	1527.189697265625	-282.9642639160156	1924.227783203125	1050.403442382812	-566.609130859375	1924.637939453125	1087.402709960938	-271.0912780761719	1967.568603515625	1009.857604980469	-541.0568237304688	1450.630859375	217.7660827636719	-446.5468444824219	1963.681274414062	1038.678466796875	-279.1322326660156	1839.102783203125	942.1244506835938	-574.4541625976562	1870.858276367188	948.7894287109376	-235.1104583740234	1809.343139648438	1088.75244140625	-414.5340881347656	1920.126953125	768.5914916992188	-554.2726440429688	1551.65185546875	336.9288940429688	-482.6917724609375	1841.369018554688	786.2408447265625	-580.10791015625	1889.294555664062	671.2626953125	-532.9716186523438	2121.5087890625	127.5464782714844	-260.2777099609375	1609.565185546875	412.0098571777344	-525.42138671875	1808.529907226562	693.4728393554688	-553.4662475585938	2042.604125976562	881.6845092773438	-270.4999389648438	1628.262573242188	46.29819488525391	-452.6646728515625	1981.134521484375	840.1023559570312	-237.9477233886719	2097.1953125	795.7835693359375	-273.9093017578125	2030.256103515625	754.0860595703125	-252.4196014404297	1788.654296875	538.0701904296875	-515.2340087890625	2121.714599609375	612.9795532226562	-288.4363098144531	1675.448364257812	358.1683349609375	-518.4986572265625	1606.357666015625	283.1345825195312	-510.9242553710938	2084.76171875	422.8782958984375	-268.3629760742188	1565.752319335938	66.57513427734375	-512.2197875976562	2005.994873046875	441.4265747070312	-280.9788513183594	1446.055419921875	193.763427734375	-415.4956359863281	2064.262451171875	324.9840087890625	-281.4150390625	1987.640747070312	344.5101318359375	-302.0933532714844	1509.71337890625	206.8457183837891	-497.2173461914062	2004.096801757812	202.5707244873047	-283.0949096679688	2193.004638671875	144.1540222167969	-333.8972778320312	1937.258666992188	165.7496643066406	-330.0700988769531	1952.031005859375	138.8878173828125	-359.6002807617188	1941.38916015625	141.4326782226562	-301.781494140625	1434.322875976562	192.6576080322266	-467.5662841796875
